<?xml version="1.0" encoding="UTF-8"?>
<svg width="128px" height="128px" viewBox="0 0 128 128" version="1.1" xmlns="http://www.w3.org/2000/svg" xmlns:xlink="http://www.w3.org/1999/xlink">
    <g id="Page-1" stroke="none" stroke-width="1" fill="none" fill-rule="evenodd">
        <g id="Artboard">
            <path d="M32,44.5 L62.5,27.5 L92.5,44.75 L62,62 L32,44.5 Z M30,82 L30,49 L60,66 L60,98.5 L30,82 Z M95,82 L65,98.5 L65,66 L95,49 L95,82 Z" id="Combined-Shape" fill="#2176C0"></path>
            <path d="M100,46.5 L118,36 L118,94.5 L100,84.5 L100,46.5 Z M25,46.5 L25,84.5 L7,94.5 L7,36 L25,46.5 Z M59.7379763,22.6692286 L26.829011,41.6692286 L9.16875694,31.0807714 L59.8312431,1.83077137 L59.7379763,22.6692286 Z M64.2620237,22.6692286 L64.1687569,1.83077137 L114.831243,31.0807714 L97.170989,41.6692286 L64.2620237,22.6692286 Z M59.5692194,105 L59.6624861,125.838457 L9,96.5884573 L26.660254,86 L59.5692194,105 Z M64.0932667,105 L97.0022321,86 L114.662486,96.5884573 L64,125.838457 L64.0932667,105 Z" id="Combined-Shape" fill="#90D6FB"></path>
        </g>
    </g>
</svg>
